<?xml version="1.0" encoding="utf-8"?>
<!-- Generator: Adobe Illustrator 26.0.1, SVG Export Plug-In . SVG Version: 6.00 Build 0)  -->
<svg version="1.1" id="Layer_1" xmlns="http://www.w3.org/2000/svg" xmlns:xlink="http://www.w3.org/1999/xlink" x="0px" y="0px"
	 viewBox="0 0 264.21 250.37" style="enable-background:new 0 0 264.21 250.37;" xml:space="preserve">
<style type="text/css">
	.st0{fill:#FFFFFF;}
	.st1{fill:#FFFFFF;}
	.st2{fill:#FFFFFF;}
	.st3{fill:#FFFFFF;}
</style>
<g>
	<g>
		<path class="st0" d="M123.85,165.53c1.05,0.17,2.11,0.31,3.17,0.46c3.53,0.51,7.09,0.51,10.62,0.18c4.36-0.4,8.61-1.36,12.74-2.89
			c8.36-3.1,15.42-8.04,21.18-14.83c3.22-3.79,5.79-7.99,7.76-12.56c2.5-5.8,3.85-11.86,4.1-18.15c0.22-5.5-0.53-10.89-2.1-16.17
			c-1.64-5.51-4.14-10.59-7.53-15.22c-0.36-0.5-0.31-0.77,0.1-1.19c1.33-1.37,2.81-2.61,3.9-4.2c2.48-3.63,1.76-8.52-1.63-11.33
			c-3.31-2.74-8.22-2.53-11.33,0.51c-1.03,1-2.03,2.03-3.04,3.04c-0.81,0.81-0.73,0.77-1.57,0.22c-0.29-0.19-0.59-0.35-0.88-0.53
			c-3.25-1.99-6.69-3.6-10.31-4.8c-2.23-0.74-4.49-1.32-6.8-1.74c-0.52-0.09-0.74-0.33-0.72-0.87c0.03-0.91,0.03-1.82,0-2.73
			c-0.02-0.57,0.19-0.81,0.76-0.89c3.27-0.46,6.22-3.38,6.76-6.66c0.89-5.45-2.84-10.05-8.37-10.13c-5.46-0.07-10.93-0.1-16.39,0.09
			c-0.39,0.01-0.76,0.13-1.13,0.22c-3.48,0.86-6.63,4.35-6.24,8.97c0.29,3.46,3,6.91,7,7.51c0.47,0.07,0.67,0.28,0.66,0.77
			c-0.02,0.91-0.05,1.83,0.01,2.73c0.05,0.74-0.27,0.99-0.95,1.1c-3.59,0.6-7.03,1.7-10.36,3.12c-3.74,1.59-7.25,3.6-10.5,6.06
			c-2.11,1.6-4.11,3.31-5.92,5.24c-0.63,0.67-0.87,1.5-0.75,2.4c0.17,1.29,0.89,2.2,2.13,2.59c1.26,0.4,2.35,0.07,3.3-0.89
			c2.2-2.22,4.6-4.21,7.22-5.92c4.31-2.81,8.96-4.84,13.96-6.04c1.88-0.45,3.81-0.66,5.7-1.04c1.29-0.26,2.24-1.21,2.33-2.53
			c0.24-3.59,0.18-7.19,0.04-10.78c-0.06-1.73-1.09-2.64-2.8-2.92c-1.06-0.17-2.14-0.03-3.2-0.08c-1.33-0.06-2.15-0.94-2.11-2.26
			c0.03-1.25,0.92-2.07,2.31-2.08c2.66-0.01,5.33,0,7.99,0c0,0,0,0,0,0.01c2.73,0,5.47-0.02,8.2,0.01c1.37,0.01,2.29,0.96,2.26,2.22
			c-0.03,1.23-0.97,2.09-2.29,2.11c-0.84,0.01-1.69-0.02-2.53,0.01c-2.08,0.06-3.36,1.35-3.37,3.42c-0.02,3.21-0.02,6.42,0,9.63
			c0.01,1.91,1.08,3.11,2.97,3.38c1.69,0.24,3.37,0.52,5.03,0.9c5.82,1.36,11.12,3.85,15.94,7.36c1.76,1.28,3.19,1.2,4.74-0.34
			c1.75-1.73,3.48-3.47,5.22-5.2c1.14-1.13,2.83-0.88,3.56,0.51c0.44,0.85,0.26,1.82-0.53,2.62c-1.65,1.67-3.32,3.32-4.97,4.98
			c-1.58,1.58-1.62,3.19-0.18,4.89c1.21,1.43,2.31,2.93,3.31,4.51c4.21,6.7,6.47,14.02,6.82,21.91c0.18,4.09-0.25,8.14-1.22,12.12
			c-1.21,4.98-3.22,9.61-6.04,13.89c-3.31,5.01-7.47,9.18-12.45,12.49c-5.22,3.47-10.94,5.71-17.14,6.76
			c-3.96,0.67-7.94,0.75-11.9,0.37c-3.81-0.36-7.53-1.27-11.12-2.66c-6.55-2.53-12.21-6.35-16.92-11.57
			c-0.84-0.93-2.23-1.3-3.37-0.88c-2.23,0.82-2.78,3.46-1.13,5.24c3.12,3.35,6.58,6.28,10.47,8.71c4.22,2.64,8.72,4.62,13.53,5.89
			L123.85,165.53z"/>
		<path class="st0" d="M134.03,85.02c-7.61-0.03-13.62,1.95-19.04,5.79c-1.3,0.92-2.52,1.96-3.64,3.09
			c-0.98,0.98-2.15,1.3-3.44,0.85c-2.13-0.74-2.76-3.39-1.21-5.02c1.89-1.99,4.04-3.68,6.34-5.16c2.89-1.85,5.99-3.27,9.28-4.26
			c4.95-1.48,9.98-1.93,15.11-1.33c6.38,0.75,12.16,3.01,17.37,6.74c5.27,3.78,9.27,8.63,12.02,14.51
			c2.03,4.36,3.16,8.95,3.42,13.76c0.29,5.36-0.57,10.52-2.51,15.51c-1.99,5.11-4.97,9.56-8.94,13.33
			c-4.24,4.03-9.16,6.92-14.76,8.67c-4.47,1.4-9.04,1.88-13.68,1.56c-3.74-0.25-7.37-1.1-10.86-2.49c-4.04-1.6-7.7-3.81-10.96-6.68
			c-0.58-0.51-1.14-1.05-1.68-1.6c-1.32-1.34-1.35-3.13-0.09-4.46c1.13-1.19,3.08-1.25,4.37-0.05c1.75,1.64,3.57,3.17,5.61,4.44
			c3.24,2.01,6.75,3.33,10.49,4.09c2.89,0.59,5.81,0.66,8.7,0.43c4.5-0.37,8.73-1.73,12.65-4.01c4.25-2.47,7.74-5.76,10.42-9.86
			c2.64-4.04,4.24-8.47,4.81-13.3c0.8-6.85-0.52-13.25-3.94-19.18c-3.25-5.64-7.89-9.84-13.82-12.57
			C141.94,85.93,137.62,84.93,134.03,85.02z"/>
		<path class="st1" d="M151.24,100.85c0.06,0.91-0.36,1.68-1.04,2.36c-2.4,2.39-4.79,4.8-7.2,7.18c-0.45,0.45-0.55,0.81-0.28,1.43
			c2.6,5.99-0.93,12.95-7.29,14.44c-5.92,1.39-11.94-2.59-12.86-8.59c-0.88-5.78,2.7-10.85,8.29-12.07
			c2.11-0.46,4.22-0.28,6.21,0.61c0.68,0.3,1.09,0.19,1.6-0.33c2.4-2.46,4.84-4.88,7.28-7.3c1.64-1.61,4.24-1.05,5.12,1.07
			C151.22,100.02,151.24,100.4,151.24,100.85z M128.79,115.93c-0.14,2.01,1.45,4.24,4.26,4.3c2.34,0.05,4.21-1.94,4.21-4.31
			c0-2.39-1.85-4.22-4.26-4.21C130.57,111.72,128.79,113.5,128.79,115.93z"/>
		<path class="st0" d="M88.3,103.08c-3.57,0-7.15,0.01-10.72-0.01c-2.29-0.01-3.75-1.92-3.16-4.06c0.36-1.29,1.6-2.21,3.04-2.21
			c3.44-0.01,6.88,0,10.31,0c3.71,0,7.42,0,11.13,0c1.9,0,3.26,1.31,3.27,3.11c0.01,1.84-1.35,3.16-3.29,3.17
			C95.36,103.09,91.83,103.08,88.3,103.08z"/>
		<path class="st0" d="M88.26,127.13c3.55,0,7.1,0,10.65,0c1.87,0,3.24,1.28,3.26,3.03c0.03,1.81-1.29,3.22-3.16,3.23
			c-7.19,0.03-14.39,0.02-21.58,0c-1.76-0.01-3.2-1.52-3.16-3.2c0.04-1.76,1.41-3.06,3.26-3.06
			C81.11,127.13,84.68,127.13,88.26,127.13z"/>
		<path class="st0" d="M95.85,111.95c3.53,0,7.06-0.01,10.59,0c1.76,0,2.95,0.95,3.3,2.58c0.34,1.6-0.78,3.29-2.4,3.57
			c-0.49,0.09-0.99,0.13-1.49,0.13c-6.69,0.01-13.39,0-20.08,0c-0.64,0-1.28-0.03-1.88-0.26c-1.36-0.52-2.25-2.02-2.01-3.3
			c0.31-1.66,1.51-2.71,3.18-2.72C88.66,111.95,92.25,111.96,95.85,111.95C95.85,111.96,95.85,111.96,95.85,111.95z"/>
	</g>
	<g>
		<path class="st2" d="M96.25,199.85h1.76c1.3,0,2.19,0.8,2.19,2.01s-0.89,2.01-2.19,2.01h-1.76V199.85z M97.97,203.23
			c0.89,0,1.47-0.54,1.47-1.38s-0.58-1.38-1.47-1.38H97v2.75H97.97z"/>
		<path class="st2" d="M102.31,199.85h0.75v4.02h-0.75V199.85z"/>
		<path class="st2" d="M108.2,201.81h0.71v1.6c-0.42,0.34-1,0.51-1.57,0.51c-1.24,0-2.16-0.87-2.16-2.07s0.92-2.07,2.17-2.07
			c0.67,0,1.23,0.22,1.61,0.65l-0.47,0.46c-0.32-0.32-0.68-0.46-1.11-0.46c-0.85,0-1.46,0.58-1.46,1.41c0,0.81,0.6,1.41,1.45,1.41
			c0.29,0,0.57-0.06,0.83-0.21V201.81z"/>
		<path class="st2" d="M111.21,199.85h0.75v4.02h-0.75V199.85z"/>
		<path class="st2" d="M115.18,200.48h-1.33v-0.63h3.41v0.63h-1.33v3.38h-0.75V200.48z"/>
		<path class="st2" d="M121.54,202.93h-2.01l-0.4,0.93h-0.77l1.81-4.02h0.73l1.81,4.02h-0.78L121.54,202.93z M121.29,202.35
			l-0.76-1.76l-0.75,1.76H121.29z"/>
		<path class="st2" d="M124.55,199.85h0.75v3.38h2.1v0.63h-2.85V199.85z"/>
		<path class="st2" d="M129.31,199.85h0.75v3.38h2.1v0.63h-2.85V199.85z"/>
		<path class="st2" d="M135.38,202.44v1.42h-0.75v-1.41l-1.58-2.61h0.8l1.18,1.96l1.19-1.96h0.73L135.38,202.44z"/>
		<path class="st2" d="M143.39,202.44v1.42h-0.75v-1.41l-1.58-2.61h0.8l1.18,1.96l1.19-1.96h0.73L143.39,202.44z"/>
		<path class="st2" d="M146.31,201.85c0-1.19,0.92-2.07,2.16-2.07s2.16,0.87,2.16,2.07s-0.92,2.07-2.16,2.07
			S146.31,203.04,146.31,201.85z M149.89,201.85c0-0.82-0.6-1.41-1.41-1.41c-0.81,0-1.41,0.59-1.41,1.41s0.6,1.41,1.41,1.41
			C149.29,203.26,149.89,202.67,149.89,201.85z"/>
		<path class="st2" d="M152.72,202.11v-2.27h0.75v2.24c0,0.83,0.37,1.18,1.02,1.18c0.65,0,1.02-0.36,1.02-1.18v-2.24h0.73v2.27
			c0,1.17-0.66,1.81-1.75,1.81C153.38,203.92,152.72,203.28,152.72,202.11z"/>
		<path class="st2" d="M161.23,203.86l-0.82-1.18c-0.05,0.01-0.1,0.01-0.16,0.01h-0.91v1.17h-0.75v-4.02h1.65
			c1.06,0,1.71,0.54,1.71,1.43c0,0.61-0.31,1.06-0.85,1.27l0.92,1.32H161.23z M160.22,200.48h-0.87v1.6h0.87
			c0.65,0,0.99-0.3,0.99-0.8S160.87,200.48,160.22,200.48z"/>
		<path class="st2" d="M163.77,203.44l0.26-0.58c0.32,0.26,0.83,0.44,1.33,0.44c0.62,0,0.89-0.22,0.89-0.52
			c0-0.87-2.39-0.3-2.39-1.79c0-0.65,0.52-1.2,1.62-1.2c0.48,0,0.99,0.13,1.34,0.36l-0.23,0.58c-0.36-0.21-0.76-0.32-1.11-0.32
			c-0.62,0-0.87,0.24-0.87,0.54c0,0.86,2.38,0.3,2.38,1.77c0,0.64-0.52,1.19-1.62,1.19C164.73,203.92,164.11,203.72,163.77,203.44z"
			/>
	</g>
	<g>
		<g>
			<path class="st0" d="M134.5,180.24v-4.56h17.8v4.56h-6.53v13.69h-4.73v-13.69H134.5z"/>
			<path class="st0" d="M171.66,193.93h-11.12c-2.05,0-3.67-0.57-4.83-1.7c-1.17-1.13-1.75-2.75-1.75-4.86v-5.13
				c0-2.11,0.59-3.73,1.75-4.86c1.17-1.13,2.78-1.7,4.83-1.7h11.12v4.56h-10.24c-0.32,0-0.65,0.06-0.97,0.17
				c-0.32,0.11-0.61,0.28-0.87,0.48c-0.26,0.21-0.47,0.45-0.63,0.73c-0.16,0.28-0.24,0.57-0.24,0.9h12.95v4.56h-12.95
				c0,0.32,0.08,0.62,0.24,0.9c0.16,0.28,0.37,0.52,0.63,0.73c0.26,0.21,0.55,0.37,0.87,0.48c0.32,0.11,0.65,0.17,0.97,0.17h10.24
				V193.93z"/>
			<path class="st0" d="M191.23,193.93h-11.12c-2.05,0-3.67-0.57-4.83-1.7c-1.17-1.13-1.75-2.75-1.75-4.86v-5.13
				c0-2.11,0.59-3.73,1.75-4.86c1.17-1.13,2.78-1.7,4.83-1.7h11.12v4.56h-10.24c-0.32,0-0.65,0.06-0.97,0.17
				c-0.32,0.11-0.61,0.28-0.87,0.48c-0.26,0.21-0.47,0.45-0.63,0.73c-0.16,0.28-0.24,0.57-0.24,0.9v4.56c0,0.32,0.08,0.62,0.24,0.9
				c0.16,0.28,0.37,0.52,0.63,0.73s0.55,0.37,0.87,0.48c0.32,0.11,0.65,0.17,0.97,0.17h10.24V193.93z"/>
			<path class="st0" d="M211.54,193.93h-4.76v-6.85h-8.93v6.85h-4.76v-18.25h4.76v6.85h8.93v-6.85h4.76V193.93z"/>
		</g>
		<g>
			<path class="st1" d="M65.37,193.93H52.68v-18.25h12.69c1.94,0,3.39,0.53,4.36,1.6c0.97,1.07,1.45,2.47,1.45,4.22
				c0,0.46-0.03,0.84-0.09,1.15c-0.06,0.31-0.14,0.59-0.24,0.83c-0.1,0.24-0.24,0.46-0.4,0.67c-0.16,0.21-0.35,0.43-0.56,0.66
				c0.21,0.21,0.39,0.41,0.56,0.6c0.16,0.19,0.29,0.4,0.4,0.64c0.1,0.24,0.19,0.52,0.24,0.86c0.06,0.33,0.09,0.74,0.09,1.21
				c0,0.87-0.12,1.67-0.36,2.38c-0.24,0.71-0.59,1.33-1.07,1.84c-0.48,0.51-1.08,0.91-1.81,1.18
				C67.22,193.79,66.36,193.93,65.37,193.93z M65.25,180.24h-7.81v2.28h8.1c0.38-0.06,0.63-0.21,0.74-0.46
				c0.11-0.25,0.17-0.47,0.17-0.66c0-0.09-0.01-0.21-0.03-0.34c-0.02-0.13-0.07-0.26-0.16-0.39c-0.09-0.12-0.21-0.23-0.37-0.31
				S65.52,180.24,65.25,180.24z M66.45,188.19c0-0.17-0.06-0.38-0.17-0.61c-0.11-0.24-0.37-0.4-0.77-0.5h-8.07v2.28h7.81
				c0.27,0,0.48-0.04,0.64-0.13s0.29-0.19,0.37-0.31c0.09-0.12,0.14-0.25,0.16-0.39C66.44,188.4,66.45,188.29,66.45,188.19z"/>
			<path class="st1" d="M73.04,193.93v-18.25h12.64c0.99,0,1.85,0.14,2.58,0.41s1.34,0.67,1.81,1.18c0.48,0.51,0.83,1.13,1.07,1.85
				c0.24,0.72,0.36,1.52,0.36,2.4c0,0.46-0.03,0.86-0.1,1.21c-0.07,0.35-0.16,0.67-0.27,0.94c-0.11,0.28-0.26,0.53-0.43,0.76
				s-0.37,0.47-0.6,0.71l0.06,0.03c0.21,0.21,0.4,0.4,0.57,0.59c0.17,0.18,0.31,0.38,0.43,0.61c0.11,0.23,0.2,0.5,0.26,0.83
				c0.06,0.32,0.09,0.73,0.09,1.23v5.5H86.7v-5.42c0-0.19-0.06-0.4-0.17-0.64c-0.11-0.24-0.37-0.4-0.77-0.5h-7.96v6.56H73.04z
				 M85.56,180.24h-7.76v2.57h8.04c0.38-0.06,0.63-0.23,0.74-0.53c0.11-0.29,0.17-0.53,0.17-0.7c0-0.09-0.01-0.22-0.03-0.37
				c-0.02-0.15-0.07-0.3-0.16-0.44c-0.09-0.14-0.21-0.27-0.37-0.37C86.04,180.29,85.83,180.24,85.56,180.24z"/>
			<path class="st1" d="M93.35,193.93v-18.25h4.76v18.25H93.35z"/>
			<path class="st1" d="M105.79,182.52h6.59c1.16,0,2.12,0.18,2.88,0.54c0.76,0.36,1.36,0.82,1.8,1.37c0.44,0.55,0.75,1.15,0.93,1.8
				c0.18,0.65,0.27,1.26,0.27,1.85c0,0.87-0.13,1.67-0.39,2.4c-0.26,0.72-0.63,1.34-1.13,1.85c-0.49,0.51-1.11,0.91-1.84,1.18
				c-0.73,0.28-1.57,0.41-2.52,0.41H99.94v-4.56h12.35c0.27,0,0.48-0.04,0.63-0.13c0.15-0.09,0.27-0.19,0.36-0.31
				c0.09-0.12,0.14-0.25,0.16-0.39c0.02-0.13,0.03-0.25,0.03-0.34c0-0.19-0.07-0.42-0.21-0.7s-0.46-0.41-0.96-0.41h-6.59
				c-1.18,0-2.15-0.18-2.91-0.54c-0.76-0.36-1.36-0.82-1.8-1.37s-0.75-1.15-0.93-1.81c-0.18-0.66-0.27-1.28-0.27-1.87
				c0-0.87,0.13-1.67,0.39-2.38c0.26-0.71,0.63-1.33,1.13-1.84c0.49-0.51,1.11-0.91,1.84-1.18s1.58-0.41,2.55-0.41h12.41v4.56
				h-12.32c-0.27,0-0.48,0.04-0.64,0.13s-0.28,0.19-0.37,0.3c-0.09,0.11-0.14,0.24-0.16,0.37c-0.02,0.13-0.03,0.25-0.03,0.34
				c0,0.09,0.01,0.21,0.04,0.34c0.03,0.13,0.09,0.26,0.17,0.37c0.09,0.11,0.2,0.21,0.36,0.3
				C105.31,182.48,105.52,182.52,105.79,182.52z"/>
			<path class="st1" d="M130.92,187.08h-6.19v6.85h-4.76v-18.25h4.76v6.85h2.82l5.45-6.85h5.85l-5.39,6.93
				c0.82,0.06,1.54,0.26,2.15,0.6c0.62,0.34,1.14,0.8,1.55,1.37s0.73,1.24,0.94,2c0.21,0.76,0.31,1.59,0.31,2.48v4.88h-4.76v-4.56
				c0-0.32-0.08-0.63-0.24-0.91c-0.16-0.29-0.37-0.53-0.63-0.73s-0.55-0.36-0.87-0.47C131.59,187.14,131.26,187.08,130.92,187.08z"
				/>
		</g>
	</g>
</g>
</svg>
