<svg id="Layer_1" data-name="Layer 1" xmlns="http://www.w3.org/2000/svg" viewBox="0 0 841.89 595.28"><title>Modulers Logo</title><path d="M555.87,89.1a49.72,49.72,0,1,0-67.26,46.53c.85,11.82-1.63,36.9-35.18,48.39-38.77,13.27-85.7,20.19-103.54,39.65v-86.5a49.72,49.72,0,1,0-30.62-.75v148.3a49.73,49.73,0,1,0,30.62-.74V267.47c3.89-10.79,14.93-25.91,45.93-33.9,51-13.15,119.33-23.55,124-96.65A49.73,49.73,0,0,0,555.87,89.1Zm-221.34-19a19.4,19.4,0,1,1-19.4,19.4A19.4,19.4,0,0,1,334.53,70.11Zm0,280.92a19.39,19.39,0,1,1,19.39-19.39A19.4,19.4,0,0,1,334.53,351ZM505,108.5a19.4,19.4,0,1,1,19.39-19.4A19.41,19.41,0,0,1,505,108.5Z" fill="#17aeb4"/><text transform="translate(162.56 514.97)" font-size="131.06" fill="#231f20" font-family="WoodfordBournePro-SemiBold, Woodford Bourne Pro" font-weight="700">M<tspan x="113.98" y="0" letter-spacing="0em">o</tspan><tspan x="180.27" y="0">dule</tspan><tspan x="414.18" y="0" letter-spacing="-0.02em">r</tspan><tspan x="461.34" y="0">s</tspan></text><text transform="translate(218.28 551.52)" font-size="15.8" fill="#17aeb4" font-family="LEMONMILK-Medium, LEMON MILK" letter-spacing="0.84em">BE BETTER EVE<tspan x="288.8" y="0" letter-spacing="0.75em">R</tspan><tspan x="311.33" y="0">Y</tspan><tspan x="335.04" y="0" letter-spacing="0.76em">D</tspan><tspan x="358.81" y="0" letter-spacing="0.67em">A</tspan><tspan x="381.6" y="0">Y</tspan></text></svg>